# xmcd CD database file
#
# Track frame offsets:
#	150
#	29153
#	55584
#	110088
#	158847
#	215620
#	234282
#	255583
#	281175
#	304688
#
# Disc length: 4359 seconds
#
# Revision: 0
# Processed by: cddbd v1.5.2PL0 Copyright (c) Steve Scherf et al.
# Submitted via: CDex 1.51
#
DISCID=8d11050a
DTITLE=Harold McNair - The Fence +
DYEAR=1970
DGENRE=Jazz
TTITLE0=The Fence
TTITLE1=The Love Adventure
TTITLE2=Early in the Morning
TTITLE3=Scarborough Fair
TTITLE4=Here, there and everywhere
TTITLE5=Lord of the Reedy River
TTITLE6=The Hipster
TTITLE7=Indecision
TTITLE8=Darn That Dream
TTITLE9=The Cottage
EXTD=YEAR: 1970
EXTT0=
EXTT1=
EXTT2=
EXTT3=
EXTT4=
EXTT5=
EXTT6=
EXTT7=
EXTT8=
EXTT9=
PLAYORDER=
